PathFileType	4	(X/Y/Z)	C:/Users/beibeiliu/ov580/test_trc/User2\sequence.3_training_dense_right.trc
DataRate	CameraRate	NumFrames	NumMarkers	Units	OrigDataRate	OrigDataStartFrame	OrigNumFrames
120	120	25	19	mm	120	215	343
Frame#	Time	ThumbCMC			ThumbMCP			ThumbIP			ThumbTip			IndexMCP			IndexPIP			IndexTip			MiddleMCP			MiddlePIP			MiddleTip			RingMCP			RingPIP			RingTip			PinkyMCP			PinkyPIP			PinkyTip			BackHand1			BackHand2			BackHand3	
		X0	Y0	Z0	X1	Y1	Z1	X2	Y2	Z2	X3	Y3	Z3	X4	Y4	Z4	X5	Y5	Z5	X6	Y6	Z6	X7	Y7	Z7	X8	Y8	Z8	X9	Y9	Z9	X10	Y10	Z10	X11	Y11	Z11	X12	Y12	Z12	X13	Y13	Z13	X14	Y14	Z14	X15	Y15	Z15	X16	Y16	Z16	X17	Y17	Z17	X18	Y18	Z18	
214	1.78333	104.053	52.0125	24.5385	73.2266	55.0401	4.12392	41.7205	46.2883	-19.4682	21.8855	25.6973	-21.002	71.3356	12.3903	-37.9995	44.6473	27.2654	-32.9843	63.9975	41.3128	-4.49141	55.0315	-0.878065	-26.7134	30.8182	19.9523	-13.976	62.6372	30.9972	11.9623	39.1752	-3.463	-7.82629	28.2191	22.7384	7.75336	57.7711	27.6625	27.244	33.7577	-8.87908	16.3007	35.3576	23.0455	28.7117	64.1471	21.5023	41.0378	91.3407	-23.1354	28.3739	109.479	-14.2188	58.9166	119.094	8.3564	27.8771	
215	1.79167	102.595	49.0185	22.7457	69.721	53.7002	2.34164	39.6876	47.2337	-12.7968	17.3274	26.9742	-15.1852	61.4289	10.5806	-34.2485	38.2441	30.5297	-26.5998	61.1071	39.9025	-0.28494	46.936	1.11643	-23.6019	27.1315	23.4409	-8.68881	61.2424	29.0924	17.2264	32.8832	-4.07003	1.28756	27.753	25.8663	13.557	57.1288	28.9848	28.5362	31.1624	-5.93755	20.3027	31.7826	23.3623	35.9101	62.0971	24.393	45.753	90.1533	-21.313	30.2831	109.753	-12.5966	57.8126	118.727	6.95033	22.0019	
216	1.8	102.304	50.2406	21.2623	68.1366	54.9339	6.24686	34.5773	45.2469	-7.17307	13.1985	26.1482	-7.91286	57.6063	11.9959	-31.7313	33.8371	30.1785	-21.6106	58.3628	38.8508	5.0449	45.1628	-0.302015	-17.6507	25.768	25.712	0.974768	59.6121	32.9979	17.301	29.8253	-0.899177	4.3331	24.2641	24.1044	20.0657	60.9677	26.95	32.2235	30.3302	-5.3456	27.0024	36.0865	25.1271	38.7189	66.9691	19.9498	50.5992	88.0954	-22.2629	28.0421	108.604	-15.8174	56.2481	115.622	6.22691	25.3725	
217	1.80833	100.95	49.6669	23.6092	65.7284	58.1811	8.34834	29.455	47.3615	-3.28308	11.4752	28.4884	2.57086	52.5725	13.5075	-29.7938	29.6486	33.2079	-16.0117	57.2261	40.3424	8.17921	36.2014	-0.0920397	-11.3643	22.3362	24.6425	7.61803	61.0661	29.5006	22.9554	27.5644	-1.11221	11.1183	24.8378	23.8534	29.8885	60.5933	27.3433	36.3398	29.9262	-6.64948	33.4356	35.0615	23.0522	46.7248	66.906	22.8822	50.3026	86.9871	-21.5528	32.5265	110.359	-16.2183	54.3168	113.757	6.11219	21.7776	
218	1.81667	99.7138	50.0257	24.0987	61.3943	56.8065	12.1289	25.1934	46.7756	3.75994	6.18746	27.1444	8.41991	47.4594	14.4999	-24.6619	26.0578	33.16	-8.91788	55.3285	38.9188	14.2587	35.1453	1.04801	-8.2325	20.7428	24.982	15.6862	60.5709	29.9282	27.4465	26.4674	-1.12434	17.6972	22.4881	21.6443	36.1951	59.8169	25.9606	41.4243	32.5637	-7.40582	35.8634	34.2668	21.082	53.8746	70.784	20.3663	51.6004	91.1761	-21.6642	31.653	116.35	-12.7129	52.1379	112.92	5.48481	20.5017	
219	1.825	97.784	51.0199	26.3767	58.4744	59.7637	15.1936	22.942	45.6715	10.2573	5.22983	25.1303	17.5757	44.0921	12.1093	-17.1025	23.0525	29.9787	0.0849238	50.9197	39.4546	18.0751	31.2439	-0.566143	-2.11172	18.9881	22.8847	19.9495	57.4575	31.2378	30.4594	25.9136	-4.43205	24.8679	24.7165	21.6059	39.8236	61.6874	26.372	43.051	32.0268	-6.29574	41.1445	36.9375	20.4586	55.0222	70.2242	20.6571	56.0996	89.96	-20.7961	32.6689	117.272	-9.96875	51.1917	113.925	11.4937	20.6556	
220	1.83333	97.5504	53.1272	23.5055	56.9691	55.3095	18.0329	21.2923	46.0526	16.425	5.26032	20.1656	24.1217	38.9928	14.2367	-16.4997	21.8837	32.5178	4.32571	53.1123	41.8387	18.8918	29.4487	-2.81876	4.07826	20.8585	25.8882	24.7516	58.646	28.3938	33.625	30.004	-6.95651	26.4578	25.6587	20.2466	45.8027	61.985	25.8704	44.621	35.1051	-7.43234	45.8144	42.0538	22.2936	62.0824	72.2347	22.438	55.5029	90.2122	-21.9909	34.6278	120.255	-7.7064	52.5366	109.624	9.07299	16.7462	
221	1.84167	97.4382	51.8167	22.2771	58.5036	59.3848	18.6591	25.4389	47.1222	19.5792	6.71767	21.7813	27.7878	38.2494	12.0183	-12.0723	21.6078	29.3463	5.92976	53.598	42.8145	19.665	32.5591	-2.62716	7.02476	22.8438	28.136	25.3571	60.6554	30.6377	32.4324	31.3755	-5.92603	31.042	29.0189	23.1609	48.0172	63.2634	28.2121	44.0555	35.6385	-9.0413	52.9959	41.9925	22.2468	60.0625	74.3466	22.3199	60.3892	94.0799	-20.74	35.0846	122.528	-6.73986	51.2205	114.25	8.3843	17.7422	
222	1.85	101.242	48.6404	18.8896	66.6426	57.5501	14.9852	26.9398	47.3938	13.0981	8.97011	29.7307	24.552	41.1162	12.2865	-13.2134	26.4245	31.8297	5.58117	56.5853	42.0188	16.9285	35.0588	-1.26836	4.99548	25.1438	30.1859	22.8109	62.2806	33.8864	29.4541	29.2265	0.391396	30.2688	30.9281	26.7598	44.4956	69.1885	27.7544	43.1403	34.4493	-0.739774	52.656	47.5838	28.7853	58.2651	76.3294	26.0395	53.6713	92.1709	-22.8904	38.5547	119.889	-10.4506	51.8241	113.574	6.30094	15.4903	
223	1.85833	108.505	42.3369	16.4478	71.6874	52.9613	4.14746	39.9209	49.4655	4.6329	13.0661	29.2516	14.4376	49.2158	8.86041	-19.9189	32.3308	34.0418	-9.06634	65.0875	38.9778	9.80751	35.625	0.435965	-0.666688	30.3239	31.3659	16.0931	66.1008	32.6983	23.8026	29.5419	4.44067	26.7776	36.5117	33.2518	34.5476	73.6008	28.9915	38.0334	38.6574	0.0725545	46.2256	51.2725	33.8034	49.6683	82.5122	23.4799	51.9313	92.2675	-22.6352	37.3636	120.479	-14.0149	53.5992	119.881	-0.263661	18.096	
224	1.86667	118.133	37.6813	9.1486	82.8133	46.8942	-4.69778	49.1261	46.2651	-9.95743	22.5936	34.5245	-1.7671	56.3926	2.73628	-26.6896	41.8312	28.7936	-20.7105	73.132	37.365	-1.95863	42.3374	-2.8252	-9.85872	35.404	31.2668	3.8099	72.6273	32.2142	14.1072	36.0793	2.88095	18.0214	40.4608	36.6428	23.4037	76.7689	29.5651	27.6185	37.5648	8.08358	36.6739	53.5239	37.4896	37.0321	82.5612	28.6633	43.2162	87.0747	-23.757	38.5842	115.732	-12.9102	58.0113	121.299	-7.13381	21.1924	
225	1.875	123.94	30.9903	5.32207	94.6818	44.4083	-13.969	59.3365	41.7554	-24.9005	32.405	32.6786	-17.7601	64.5914	-6.06488	-32.0336	52.2451	24.9019	-35.3241	76.8755	32.9809	-10.7428	47.9632	-5.44871	-17.5873	43.837	28.9869	-14.9466	76.2211	31.1236	4.92169	36.7337	6.38052	5.46077	44.6779	34.5251	5.76213	76.6267	31.8806	23.6848	39.8639	11.3014	22.532	54.1656	40.2207	30.0415	86.5907	27.5027	37.8657	87.0721	-21.8675	34.4562	111.384	-13.6627	61.0127	124.798	-10.9633	22.5696	
226	1.88333	129.248	27.1133	9.14065	99.9059	37.0159	-21.185	70.0341	37.9199	-34.8812	39.3543	26.9946	-31.5201	77.1882	-13.1939	-37.6153	58.0284	14.1951	-41.8436	79.9564	28.8514	-18.8134	51.524	-10.2661	-23.0587	50.1549	24.234	-25.4565	80.2896	26.41	-0.447499	41.8015	3.5553	-5.58741	46.3201	31.204	-3.77002	78.1843	30.3275	12.9941	41.7945	7.15205	16.8544	56.4439	37.3771	16.2175	84.626	31.1393	30.3844	84.6389	-26.0613	36.3409	112.115	-12.1438	60.4879	124.384	-12.9136	23.3622	
227	1.89167	131.193	23.5343	9.59452	106.672	34.0901	-22.9784	74.716	29.8401	-38.8295	49.9238	23.1763	-37.0752	78.1364	-18.8091	-39.6239	65.9798	10.0493	-46.5642	86.6527	23.0766	-23.0951	57.2681	-16.874	-27.5067	54.1359	17.3411	-32.3932	82.0355	23.1121	-5.33317	45.6614	-1.78943	-11.7933	50.9025	27.4022	-12.7685	80.8656	26.2367	12.0596	43.145	5.69542	8.60218	59.1266	35.52	9.6734	83.2904	27.9421	28.4271	85.9981	-26.2255	35.1413	110.362	-13.2212	62.0154	124.85	-15.7047	29.3215	
228	1.9	132.811	19.5545	3.94998	111.385	29.0649	-24.3536	79.6013	22.7641	-42.0669	51.8765	14.4146	-41.9306	84.6806	-24.4325	-38.3944	69.6941	-0.227449	-51.5973	93.2824	19.6241	-26.2965	63.0941	-23.3998	-26.8267	56.2182	9.99734	-36.0275	85.9826	19.709	-9.85085	51.0746	-9.86526	-13.8745	51.7771	23.5827	-14.5871	81.9917	22.5021	7.90161	41.5778	0.931053	7.7342	54.1768	30.4094	3.36776	84.0246	25.926	21.2551	88.3695	-27.8569	36.3445	108.221	-14.8575	61.3955	126.705	-19.6225	25.357	
229	1.90833	133.334	18.7273	8.27714	112.44	25.9272	-21.1344	83.967	19.7379	-45.0552	56.4158	11.9454	-45.7411	87.7713	-30.0023	-38.634	72.7524	-5.40545	-52.5138	92.5481	15.0409	-23.7162	69.409	-27.7677	-29.981	59.1973	8.17935	-36.7658	87.195	14.5707	-10.067	50.3486	-12.1005	-19.0492	53.5852	19.3088	-19.0208	77.6298	22.1157	4.33461	41.3844	0.0136466	1.66858	59.3815	26.7315	-0.404496	82.1852	22.2338	21.4814	82.8975	-30.2025	35.5644	106.055	-14.1859	64.7383	126.274	-20.65	29.9678	
230	1.91667	128.307	14.7052	12.3022	109.145	20.7673	-19.8951	84.7011	17.1346	-43.4288	56.253	4.89477	-42.9812	91.3019	-33.3622	-37.8464	75.1447	-10.9475	-51.873	92.2692	12.5718	-29.5797	67.5307	-31.141	-27.4851	62.1335	4.15205	-39.6857	85.3442	13.8317	-12.5913	53.3695	-16.4533	-17.7537	54.0984	16.308	-19.7676	80.7194	16.5648	4.87564	42.9039	-3.00415	-0.67382	56.9294	26.2224	-0.154146	77.5114	22.0762	18.884	82.0662	-29.4139	40.699	99.4176	-14.6817	68.8762	124.319	-19.1585	33.5258	
231	1.925	130.926	15.4705	13.5197	111.307	18.9187	-20.808	88.6902	14.9419	-45.9618	59.1908	2.28285	-44.1434	94.8742	-35.6852	-37.2184	80.7901	-8.45988	-52.728	94.07	10.5627	-25.2393	67.7863	-32.164	-27.3057	63.6939	1.70942	-38.683	83.9998	11.0839	-8.75712	54.032	-17.7647	-18.2447	54.1843	11.6721	-23.4013	75.9384	16.8417	4.88101	39.798	-6.2799	0.892956	56.0013	25.0849	-0.560588	79.2947	20.4142	18.4532	81.2863	-30.8334	40.0421	95.2312	-17.5539	67.6268	118.757	-22.5622	36.9873	
232	1.93333	128.713	14.3161	20.4778	112.181	17.8287	-14.798	89.5115	9.08778	-44.8904	61.1722	-0.983006	-47.9615	94.1067	-37.6269	-36.148	83.624	-11.9519	-50.1545	96.0644	8.41447	-25.0844	69.4014	-33.4081	-30.2606	65.686	-2.61247	-40.5551	88.7933	7.01896	-4.22545	51.3185	-18.304	-19.6342	59.7496	11.9972	-23.3636	80.5889	13.0361	4.76665	43.4013	-7.60827	-4.16558	59.2387	22.7998	-4.54854	76.9472	18.7219	16.5642	75.9443	-32.5869	39.1072	90.5534	-14.3858	72.3897	121.33	-21.6179	40.2589	
233	1.94167	128.749	12.255	22.2071	116.07	15.1472	-15.6383	93.6144	6.2361	-45.0472	67.4441	-1.55422	-52.268	100.03	-38.6053	-32.5201	88.6825	-11.7114	-50.3965	98.9077	5.41944	-24.6121	77.346	-37.0769	-30.5997	71.9912	-4.32998	-42.3341	92.1745	6.23771	-6.76382	55.7619	-20.8885	-21.1967	57.7749	9.21919	-25.7816	79.338	12.691	6.06361	44.2122	-9.18013	-3.71907	59.8907	22.7209	-5.19517	75.4779	19.2303	19.1366	75.698	-31.5413	42.5853	88.01	-17.9883	68.8169	114.872	-23.4934	43.9261	
234	1.95	127.887	12.1328	24.013	114.548	11.9745	-13.773	95.71	5.27271	-45.102	69.5186	-4.45653	-48.9893	97.8067	-39.7112	-34.4372	90.1574	-13.3598	-48.6597	105.358	4.36061	-20.8988	76.9939	-37.8949	-28.3318	73.9056	-6.33328	-43.4756	91.5297	4.45775	-6.05764	58.5936	-22.7636	-22.6144	59.9826	8.2009	-28.2988	82.7973	10.6385	5.54199	43.0635	-8.93485	-7.14877	59.7228	17.9349	-10.353	76.4831	16.6624	15.6012	74.4572	-34.0574	40.3131	85.0466	-17.7005	68.9423	112.71	-24.4671	43.8723	
235	1.95833	127.439	8.56019	22.0531	118.23	12.9873	-13.2888	99.1156	4.52699	-46.2782	72.6242	-4.14263	-54.4089	103.839	-39.1378	-33.38	96.5074	-12.2079	-49.6737	100.779	2.59117	-19.933	79.1395	-37.7851	-30.0978	76.472	-3.35878	-41.4791	89.9587	5.42519	-7.70377	59.1403	-22.4013	-21.0715	60.8729	8.40279	-28.6995	79.9837	12.6691	3.03042	47.9139	-11.6261	-8.87749	60.1028	21.946	-8.54138	73.8574	18.0243	16.362	76.6003	-32.8003	39.7324	83.2096	-16.647	68.4663	112.458	-26.3059	44.5469	
236	1.96667	128.987	7.83675	23.6409	121.593	13.1342	-11.7098	101.504	3.24103	-43.5886	74.0607	-6.12973	-50.9037	102.688	-40.5753	-31.3679	99.8133	-14.3444	-49.4661	108.719	2.4463	-17.7575	79.8244	-37.4503	-29.8148	79.3522	-5.88566	-43.7513	91.7143	3.37963	-3.45593	59.514	-19.6091	-24.8469	63.7395	9.72497	-29.456	82.3924	12.9017	1.4778	49.8244	-9.0201	-14.0141	64.1888	18.7614	-11.7367	78.7784	14.8188	18.1088	69.5757	-31.4921	38.4498	81.4414	-13.076	69.7281	110.151	-25.9733	44.2551	
237	1.975	130.255	5.38834	24.4167	124.539	9.58289	-13.8742	105.596	1.84711	-43.6584	77.7698	-5.47714	-51.3324	103.434	-42.8014	-29.7486	97.1787	-18.2239	-48.3257	106.035	0.751814	-14.2405	79.1955	-37.9257	-32.6057	80.0046	-4.08711	-41.8209	93.7525	2.93352	-3.93191	61.3336	-19.0122	-27.5243	69.0951	8.29862	-30.3739	82.672	12.7048	2.97109	49.6248	-8.50061	-13.6014	64.6318	22.1478	-10.5171	78.0663	13.7123	17.0812	72.4076	-34.3172	37.4807	80.8113	-16.6039	68.0545	110.092	-27.6558	47.8792	
238	1.98333	130.447	5.56903	28.4676	124.218	6.96405	-10.8204	110.106	1.30089	-45.4308	82.004	-5.40097	-54.9294	102.885	-43.6403	-30.2906	103.75	-19.1424	-49.9063	108.687	-1.33038	-17.8903	80.4141	-39.0591	-31.3824	81.0058	-3.50384	-40.3078	93.9664	3.15223	-6.65458	63.4694	-20.3138	-27.1144	70.2909	9.58171	-30.0975	85.6825	8.61543	7.03535	49.1703	-6.41352	-14.7238	68.0401	18.6486	-13.2949	82.1715	13.9311	16.8329	71.6849	-33.3971	38.4726	75.7913	-13.8425	68.388	109.318	-29.7345	46.6753	
